<?xml version="1.0" encoding="UTF-8"?>
<svg version="1.1" xmlns="http://www.w3.org/2000/svg" width="256" height="256">
<path d="M0 0 C6.69976639 -0.72823548 11.3316362 1.51249922 17 5 C18.10730639 5.9305302 19.19455315 6.886038 20.25 7.875 C22.76657353 10.30600058 22.76657353 10.30600058 25.60546875 9.8203125 C29.85519527 8.79333601 33.93562719 7.43543402 38.0625 6 C45.26484902 3.50710532 51.28624938 1.84874999 59 2 C59.495 6.455 59.495 6.455 60 11 C59.23816406 11.15855469 58.47632812 11.31710938 57.69140625 11.48046875 C50.73493981 13.05240436 45.01358086 15.15799001 39 19 C40.16015625 18.7834375 40.16015625 18.7834375 41.34375 18.5625 C47.31460095 17.49838795 52.93358205 16.65661785 59 17 C60 18 60 18 60.09765625 19.84765625 C60.06510417 21.8984375 60.03255208 23.94921875 60 26 C59.38511719 26.18175781 58.77023438 26.36351563 58.13671875 26.55078125 C57.32847656 26.80214844 56.52023438 27.05351563 55.6875 27.3125 C54.48673828 27.67794922 54.48673828 27.67794922 53.26171875 28.05078125 C50.63705695 28.9845733 50.63705695 28.9845733 48 32 C51.63 31.67 55.26 31.34 59 31 C60.32 33.97 61.64 36.94 63 40 C63.99 37.03 64.98 34.06 66 31 C70.29 31.33 74.58 31.66 79 32 C74.7162359 29.42974154 70.8274799 27.41292095 66 26 C66 23.03 66 20.06 66 17 C73.2274605 16.75908465 79.90294338 17.65504172 87 19 C80.06126522 15.26646758 73.79870106 12.29978351 66 11 C66.33 8.03 66.66 5.06 67 2 C76.29713118 1.86525897 84.14531713 4.47518957 92.7878418 7.64868164 C94.09942261 8.12035767 94.09942261 8.12035767 95.4375 8.6015625 C96.21996094 8.89369629 97.00242187 9.18583008 97.80859375 9.48681641 C100.30762405 10.07203941 101.60940692 9.87781301 104 9 C105.6823668 7.90851325 107.32633983 6.7565956 108.9375 5.5625 C114.74203779 1.26516831 118.70730426 -0.28598807 126 0 C128.4445545 5.4642983 128.29116761 10.26459605 127 16 C124.6596317 20.42998285 121.54003891 23.50098803 118 27 C118.33733154 27.50748779 118.67466309 28.01497559 119.0222168 28.5378418 C131.62420398 47.62516302 140.42496015 65.77148685 135.92260742 89.25488281 C135.32194293 92.17943529 134.67573042 95.09194588 134 98 C133.01 98 132.02 98 131 98 C130.01 95.36 129.02 92.72 128 90 C127.61521484 90.90878906 127.61521484 90.90878906 127.22265625 91.8359375 C122.61983991 101.90944128 114.9851259 110.49278652 106 117 C105.34 117 104.68 117 104 117 C104.61618311 113.17135661 105.76782593 110.05543833 107.4375 106.5625 C110.30032034 100.55485014 112.08063209 95.20039842 112.75 88.5625 C113.50342415 83.22169492 114.59136759 80.21594181 118.5625 76.5625 C122.19504155 72.61408527 122.27238384 68.21637957 122.25 63.0625 C122.25515625 61.87785156 122.2603125 60.69320312 122.265625 59.47265625 C121.99993706 55.99917717 121.24620553 53.23914532 120 50 C119.8040625 51.05058594 119.608125 52.10117188 119.40625 53.18359375 C117.57662821 62.08061967 115.57497051 69.21650296 108 75 C105.03719661 76.41601258 103.30321734 77 100 77 C100.45632812 77.88042969 100.91265625 78.76085937 101.3828125 79.66796875 C101.95773438 80.82941406 102.53265625 81.99085938 103.125 83.1875 C103.70507812 84.33605469 104.28515625 85.48460937 104.8828125 86.66796875 C106 90 106 90 105.42578125 92.75390625 C103.85206419 95.23304956 102.59462947 96.29767993 100.0625 97.75 C99.37285156 98.15734375 98.68320313 98.5646875 97.97265625 98.984375 C96 100 96 100 93 101 C94.58272601 102.58272601 96.38034003 102.34735747 98.5625 102.5625 C99.38878906 102.64628906 100.21507812 102.73007813 101.06640625 102.81640625 C101.70449219 102.87699219 102.34257812 102.93757813 103 103 C101.72437943 108.95289602 98.77861672 111.61514649 94 115 C89.27590543 117.93659933 84.24259641 117.09487151 79 116 C73.06480153 114.01129635 69.64697457 111.01459004 66 106 C70.30863081 96.60677644 79.43017123 91.96147982 88 87 C87.7834375 85.22496094 87.7834375 85.22496094 87.5625 83.4140625 C84.84334592 60.606464 84.84334592 60.606464 88.25 55.875 C91 54 91 54 95 54 C95 55.65 95 57.3 95 59 C103.22680234 54.21697538 106.48177029 48.0287748 109 39 C108.30777344 39.30292969 107.61554688 39.60585937 106.90234375 39.91796875 C99.75022802 42.9804689 92.57954796 45.5049481 85.15234375 47.7890625 C81.43409597 49.13648247 81.43409597 49.13648247 79 52 C78.78072681 54.63408811 78.78072681 54.63408811 79.1875 57.625 C79.30351562 58.76582031 79.41953125 59.90664062 79.5390625 61.08203125 C79.69117188 62.37496094 79.84328125 63.66789062 80 65 C80.17479097 66.54553768 80.34925768 68.09111207 80.5234375 69.63671875 C80.99490723 73.76047309 81.49185993 77.88061205 82 82 C73.1468098 86.13550381 65.10761327 89.78324475 55.25390625 86.90625 C53.42666016 86.21015625 53.42666016 86.21015625 51.5625 85.5 C50.92634766 85.26152344 50.29019531 85.02304688 49.63476562 84.77734375 C48.08597268 84.19509076 46.54239747 83.59898931 45 83 C44.76710976 76.4790734 45.38114041 70.21048695 46.28857422 63.76171875 C47.6727722 56.73356321 47.6727722 56.73356321 45.79296875 50.23828125 C43.683664 48.7815283 41.74573669 48.00354722 39.3125 47.1875 C34.281472 45.44963146 29.29210617 43.62889838 24.3125 41.75 C22.91279167 41.22387517 21.51305459 40.69782684 20.11328125 40.171875 C19.08589844 39.78515625 18.05851562 39.3984375 17 39 C19.33550713 46.59726731 21.80735961 54.19041065 29.1875 58.18359375 C29.785625 58.45300781 30.38375 58.72242188 31 59 C31 57.35 31 55.7 31 54 C36.5219693 54.49084172 36.5219693 54.49084172 38.6796875 56.7890625 C43.23097286 64.41044568 39.03496487 78.51698441 38 87 C38.9178125 87.556875 39.835625 88.11375 40.78125 88.6875 C47.99482395 93.14513893 54.35533474 97.566484 60 104 C58.11291914 109.67087055 54.94615984 111.92259604 50 115 C44.29897408 117.61297021 38.78751075 117.94775366 32.875 115.9375 C28.74658912 113.15531006 24.80172546 109.66772973 23.33203125 104.77734375 C23.22246094 104.19082031 23.11289063 103.60429687 23 103 C23.62648437 102.93941406 24.25296875 102.87882812 24.8984375 102.81640625 C25.71570313 102.73261719 26.53296875 102.64882812 27.375 102.5625 C28.18710938 102.48128906 28.99921875 102.40007812 29.8359375 102.31640625 C32.04272805 102.10909886 32.04272805 102.10909886 34 101 C33.32453125 100.76925781 32.6490625 100.53851563 31.953125 100.30078125 C27.94398631 98.83501234 24.57306708 97.44571884 21.1875 94.8125 C19.57024813 90.98216662 20.49442675 88.98984372 21.9921875 85.2265625 C23.25327538 82.44043811 24.54984661 79.693142 26 77 C25.175 76.979375 24.35 76.95875 23.5 76.9375 C17.82205581 75.41662209 13.79543691 71.85685696 10.671875 66.88671875 C8.10544562 61.49530181 6.93151065 55.87096846 6 50 C2.82729802 56.56201414 3.2897959 63.90506103 4 71 C5.49480197 74.94972675 7.7864722 77.66124328 10.58984375 80.75390625 C12.51939988 83.82729898 12.74647407 86.60167603 13.25 90.1875 C14.71181727 99.40869076 18.17585905 107.53450441 22 116 C17.01406385 115.61576272 14.40011114 113.05660591 11.0625 109.625 C10.53615967 109.09277832 10.00981934 108.56055664 9.4675293 108.01220703 C4.89232747 103.21670984 1.73720825 98.03700476 -1 92 C-1.33 91.34 -1.66 90.68 -2 90 C-3.32 92.97 -4.64 95.94 -6 99 C-6.66 98.67 -7.32 98.34 -8 98 C-14.07525099 78.96607142 -11.00563957 60.61454438 -2.20703125 43.08984375 C0.76227688 37.43420853 4.25269746 32.17247345 8 27 C7.22140625 26.23816406 6.4428125 25.47632812 5.640625 24.69140625 C-0.21015706 18.72810915 -2.24369256 14.02384245 -2.16796875 5.90625 C-1.96352584 3.58606071 -1.28914803 1.93372204 0 0 Z M20 65 C21.31860889 69.61513112 23.21355437 73.09897612 26 77 C28.58777208 73.94419026 28.58777208 73.94419026 29 70 C26.03 68.35 23.06 66.7 20 65 Z M105 65 C100.545 67.97 100.545 67.97 96 71 C96.99 72.98 97.98 74.96 99 77 C101.63978826 73.81404865 104.10498388 70.69029454 106 67 C105.67 66.34 105.34 65.68 105 65 Z " fill="#EB6009" transform="translate(65,52)"/>
<path d="M0 0 C1.07378906 0.43441406 2.14757812 0.86882812 3.25390625 1.31640625 C7.74424795 3.09404724 12.14017862 4.68266197 16.81640625 5.87890625 C17.37158777 11.06060047 17.20853457 13.9534534 14.12890625 18.25390625 C11.67825836 21.22262459 9.66521057 22.97330523 5.81640625 23.87890625 C5.32140625 22.88890625 5.32140625 22.88890625 4.81640625 21.87890625 C4.15253906 22.39582031 3.48867187 22.91273438 2.8046875 23.4453125 C1.92167969 24.10402344 1.03867188 24.76273438 0.12890625 25.44140625 C-1.17626953 26.43333984 -1.17626953 26.43333984 -2.5078125 27.4453125 C-5.18359375 28.87890625 -5.18359375 28.87890625 -7.71484375 28.78515625 C-10.46670667 27.77497872 -12.59777605 26.49880822 -14.99609375 24.81640625 C-15.78628906 24.26855469 -16.57648438 23.72070312 -17.390625 23.15625 C-18.27814453 22.52396484 -18.27814453 22.52396484 -19.18359375 21.87890625 C-19.51359375 22.53890625 -19.84359375 23.19890625 -20.18359375 23.87890625 C-24.88493504 22.53566588 -27.63462309 19.95725931 -30.18359375 15.87890625 C-32.47159375 9.74290625 -32.47159375 9.74290625 -31.18359375 5.87890625 C-28.60845252 4.90468904 -26.14082951 4.10509587 -23.49609375 3.37890625 C-19.44004618 2.2347982 -15.75518157 1.19132692 -12.0390625 -0.83984375 C-7.52817843 -2.86387928 -4.50906298 -1.58785408 0 0 Z " fill="#EA6009" transform="translate(135.18359375,170.12109375)"/>
<path d="M0 0 C0.66 0.33 1.32 0.66 2 1 C2.47203408 3.33885273 2.84791343 5.6414069 3.1875 8 C4.69061225 17.28461693 8.14690584 25.47041074 12 34 C7.01406385 33.61576272 4.40011114 31.05660591 1.0625 27.625 C0.53615967 27.09277832 0.00981934 26.56055664 -0.5324707 26.01220703 C-5.10767253 21.21670984 -8.26279175 16.03700476 -11 10 C-11.33 9.34 -11.66 8.68 -12 8 C-13.32 10.97 -14.64 13.94 -16 17 C-16.66 16.67 -17.32 16.34 -18 16 C-18.6328125 13.49609375 -18.6328125 13.49609375 -19.125 10.4375 C-19.37636719 8.91962891 -19.37636719 8.91962891 -19.6328125 7.37109375 C-19.75398438 6.58863281 -19.87515625 5.80617187 -20 5 C-19.34 5 -18.68 5 -18 5 C-17.67 6.98 -17.34 8.96 -17 11 C-16.01 9.02 -15.02 7.04 -14 5 C-12.68 5 -11.36 5 -10 5 C-9.67386719 5.83144531 -9.34773438 6.66289062 -9.01171875 7.51953125 C-8.35623047 9.14955078 -8.35623047 9.14955078 -7.6875 10.8125 C-7.25824219 11.89144531 -6.82898438 12.97039062 -6.38671875 14.08203125 C-5.12740252 16.73191638 -4.09567279 18.05182324 -2 20 C-2 20.66 -2 21.32 -2 22 C-1.01 22 -0.02 22 1 22 C2.03602195 17.28095538 2.03602195 17.28095538 1.0625 12.6875 C-0.57418908 8.54763939 -0.15379431 4.40022607 0 0 Z " fill="#EE6008" transform="translate(75,134)"/>
<path d="M0 0 C2 3 2 3 1.625 5.375 C-1.21416823 9.96134868 -5.96846373 12.32282124 -11 14 C-9.41727399 15.58272601 -7.61965997 15.34735747 -5.4375 15.5625 C-4.61121094 15.64628906 -3.78492188 15.73007813 -2.93359375 15.81640625 C-2.29550781 15.87699219 -1.65742188 15.93757812 -1 16 C-2.27562057 21.95289602 -5.22138328 24.61514649 -10 28 C-14.72409457 30.93659933 -19.75740359 30.09487151 -25 29 C-30.93519847 27.01129635 -34.35302543 24.01459004 -38 19 C-36.59155282 15.78475695 -34.89655214 13.67816132 -32.375 11.25 C-31.42753906 10.32960937 -31.42753906 10.32960937 -30.4609375 9.390625 C-29.73777344 8.70226562 -29.73777344 8.70226562 -29 8 C-28.34 8.33 -27.68 8.66 -27 9 C-27.58910156 9.53109375 -28.17820313 10.0621875 -28.78515625 10.609375 C-29.53667969 11.31578125 -30.28820312 12.0221875 -31.0625 12.75 C-32.19365234 13.79414063 -32.19365234 13.79414063 -33.34765625 14.859375 C-35.25292155 16.83714786 -35.25292155 16.83714786 -34.84765625 19.16796875 C-33.0303499 23.09569537 -28.93344751 24.86147063 -25.0546875 26.41796875 C-20.29591489 27.76598609 -15.40705972 28.09688797 -10.83984375 26.015625 C-7.21128736 23.61922119 -7.21128736 23.61922119 -5.31640625 19.828125 C-5.15978516 18.92320312 -5.15978516 18.92320312 -5 18 C-5.886875 18.04125 -6.77375 18.0825 -7.6875 18.125 C-10.97277013 18.00102754 -13.05449295 17.38612096 -16 16 C-16 15.01 -16 14.02 -16 13 C-15.08476562 12.66226563 -14.16953125 12.32453125 -13.2265625 11.9765625 C-12.03804687 11.53054687 -10.84953125 11.08453125 -9.625 10.625 C-8.44164062 10.18414062 -7.25828125 9.74328125 -6.0390625 9.2890625 C-2.95506554 8.2049658 -2.95506554 8.2049658 -1 6 C-0.60235737 4.01178687 -0.26224651 2.01055661 0 0 Z " fill="#C16529" transform="translate(169,139)"/>
<path d="M0 0 C6.69976639 -0.72823548 11.3316362 1.51249922 17 5 C18.10730639 5.9305302 19.19455315 6.886038 20.25 7.875 C22.78295189 10.3216606 22.78295189 10.3216606 25.7265625 9.796875 C30.57477519 8.61664184 35.11430061 6.76841202 39.7578125 4.9609375 C43.01870423 3.99445634 43.91856115 4.03982332 47 5 C43.96442001 6.18295033 40.92068907 7.34335269 37.875 8.5 C37.0190625 8.83386719 36.163125 9.16773438 35.28125 9.51171875 C30.72850895 11.22775191 26.94739196 12.5548477 22 12 C21.34 11.67 20.68 11.34 20 11 C20 10.34 20 9.68 20 9 C19.360625 8.7525 18.72125 8.505 18.0625 8.25 C16.30461743 7.53249691 14.55568383 6.78949216 12.83984375 5.9765625 C7.19178529 3.24035799 7.19178529 3.24035799 1 3 C0.74222448 10.21771468 0.84230593 16.72825022 5.625 22.5 C6.800625 23.7375 6.800625 23.7375 8 25 C3.19550004 23.11251787 0.81049174 19.82360642 -1.25 15.1875 C-2.35159878 10.5057052 -2.83054927 6.07637318 -1 1.5 C-0.67 1.005 -0.34 0.51 0 0 Z " fill="#D26B27" transform="translate(65,52)"/>
<path d="M0 0 C0 11.72580501 -2.78172019 21.56344037 -8 32 C0.72540793 25.15565404 6.36642428 17.00852356 11 7 C11.66 7 12.32 7 13 7 C12.36971413 8.68076231 11.69040574 10.34302621 11 12 C10.76667969 12.58136719 10.53335938 13.16273438 10.29296875 13.76171875 C6.19502181 22.98677738 -1.87408239 31.11504288 -10 37 C-10.66 37 -11.32 37 -12 37 C-11.38381689 33.17135661 -10.23217407 30.05543833 -8.5625 26.5625 C-5.122141 19.34288097 -3.57369215 12.73709218 -2.5625 4.828125 C-2 2 -2 2 0 0 Z " fill="#C1682E" transform="translate(181,132)"/>
<path d="M0 0 C7.00709415 5.88350762 9.12238718 18.27262807 10 27 C10.70059044 36.75822393 9.19726783 45.54390096 7 55 C6.01 55 5.02 55 4 55 C3.34 52.36 2.68 49.72 2 47 C2.66 47 3.32 47 4 47 C4.33 47.66 4.66 48.32 5 49 C10.00767925 37.89243163 8.06898038 25.38131997 5 14 C3.84108744 11.17755613 2.48626708 8.67528074 1 6 C0.25 2.5 0.25 2.5 0 0 Z " fill="#C86828" transform="translate(192,95)"/>
<path d="M0 0 C1 1 1 1 1.09765625 2.84765625 C1.06510417 4.8984375 1.03255208 6.94921875 1 9 C0.39671875 9.18175781 -0.2065625 9.36351563 -0.828125 9.55078125 C-6.85585198 11.41987906 -6.85585198 11.41987906 -12 15 C-11.67 15.66 -11.34 16.32 -11 17 C-12.32 17.33 -13.64 17.66 -15 18 C-14.6740051 14.95738092 -14.02104739 14.0198781 -11.75 11.875 C-8.12961525 9.40655585 -5.40919789 8 -1 8 C-1 5.69 -1 3.38 -1 1 C-1.94101563 1.2165625 -2.88203125 1.433125 -3.8515625 1.65625 C-5.71941406 2.07390625 -5.71941406 2.07390625 -7.625 2.5 C-9.46964844 2.91765625 -9.46964844 2.91765625 -11.3515625 3.34375 C-14.67152228 3.94091621 -17.63908451 4.12409534 -21 4 C-14.89491305 -0.07005796 -7.17978049 -0.39162439 0 0 Z " fill="#C36A30" transform="translate(124,69)"/>
<path d="M0 0 C0.66 0 1.32 0 2 0 C2.33 1.98 2.66 3.96 3 6 C3.99 4.02 4.98 2.04 6 0 C7.32 0 8.64 0 10 0 C10.27972656 0.7734375 10.55945313 1.546875 10.84765625 2.34375 C13.57099099 9.4191663 16.5766924 14.6860963 22 20 C21.67 20.66 21.34 21.32 21 22 C15.25393221 16.09709165 11.38827463 10.51773434 8 3 C6.68 5.97 5.36 8.94 4 12 C3.34 11.67 2.68 11.34 2 11 C1.3671875 8.49609375 1.3671875 8.49609375 0.875 5.4375 C0.70742188 4.42558594 0.53984375 3.41367188 0.3671875 2.37109375 C0.24601562 1.58863281 0.12484375 0.80617187 0 0 Z " fill="#BC632A" transform="translate(55,139)"/>
<path d="M0 0 C0.33 0.66 0.66 1.32 1 2 C0.0919838 3.13199353 -0.82683826 4.25532363 -1.75 5.375 C-2.26046875 6.00148438 -2.7709375 6.62796875 -3.296875 7.2734375 C-5.11689024 9.11849882 -6.59333869 10.06197059 -9 11 C-9.99 11 -10.98 11 -12 11 C-12 9.35 -12 7.7 -12 6 C-13.98 6.99 -13.98 6.99 -16 8 C-16 13.94 -16 19.88 -16 26 C-16.66 26 -17.32 26 -18 26 C-18.97204204 20.41075825 -19.85882691 14.64917259 -19 9 C-16.75 5.875 -16.75 5.875 -14 4 C-12.68 4 -11.36 4 -10 4 C-10 5.65 -10 7.3 -10 9 C-5.82117329 6.43571997 -2.87494471 3.98069267 0 0 Z " fill="#C4682E" transform="translate(170,102)"/>
<path d="M0 0 C6.625 -0.25 6.625 -0.25 10 2 C5.545 2.495 5.545 2.495 1 3 C0.74222448 10.21771468 0.84230593 16.72825022 5.625 22.5 C6.800625 23.7375 6.800625 23.7375 8 25 C3.19550004 23.11251787 0.81049174 19.82360642 -1.25 15.1875 C-2.35159878 10.5057052 -2.83054927 6.07637318 -1 1.5 C-0.67 1.005 -0.34 0.51 0 0 Z " fill="#C26B33" transform="translate(65,52)"/>
<path d="M0 0 C1.98 0 3.96 0 6 0 C6 0.66 6 1.32 6 2 C4.68 2 3.36 2 2 2 C1.67 3.98 1.34 5.96 1 8 C1.85271484 8.05607422 1.85271484 8.05607422 2.72265625 8.11328125 C8.08435193 8.56978622 12.1669508 9.63489082 17 12 C17 12.66 17 13.32 17 14 C16.45472656 13.80664062 15.90945312 13.61328125 15.34765625 13.4140625 C9.94471123 11.5484302 4.59798316 10.15513938 -1 9 C-0.67 6.03 -0.34 3.06 0 0 Z " fill="#BA612A" transform="translate(132,54)"/>
<path d="M0 0 C5.5078571 0.4895873 5.5078571 0.4895873 7.68359375 2.74609375 C9.21255856 5.36393558 9.34466368 6.80692806 9.25 9.8125 C9.22421875 10.68261719 9.1984375 11.55273438 9.171875 12.44921875 C8.95412964 15.68075788 8.55488706 18.80939942 8 22 C7.34 22 6.68 22 6 22 C6 16.06 6 10.12 6 4 C4.68 3.34 3.36 2.68 2 2 C2 3.65 2 5.3 2 7 C1.01 7 0.02 7 -1 7 C-0.67 4.69 -0.34 2.38 0 0 Z " fill="#BF632B" transform="translate(96,106)"/>
<path d="M0 0 C1.32 0.66 2.64 1.32 4 2 C4 2.66 4 3.32 4 4 C-1.94 4.495 -1.94 4.495 -8 5 C-8 4.34 -8 3.68 -8 3 C-8.66 3 -9.32 3 -10 3 C-10 4.65 -10 6.3 -10 8 C-11.98 8.99 -11.98 8.99 -14 10 C-13.34 7.03 -12.68 4.06 -12 1 C-7.71 1.33 -3.42 1.66 1 2 C0.67 1.34 0.34 0.68 0 0 Z " fill="#C06226" transform="translate(143,82)"/>
<path d="M0 0 C0.99 0.495 0.99 0.495 2 1 C2.57199867 3.48864343 3.03441912 5.92086835 3.4375 8.4375 C4.53093462 14.78949657 5.9269679 20.88382018 8 27 C7.34 27 6.68 27 6 27 C5.73445313 26.19175781 5.46890625 25.38351563 5.1953125 24.55078125 C4.84210938 23.48214844 4.48890625 22.41351563 4.125 21.3125 C3.77695313 20.25675781 3.42890625 19.20101562 3.0703125 18.11328125 C2.0689247 15.06131172 2.0689247 15.06131172 0.875 12.4375 C-0.10924395 9.69567756 -0.20237081 7.58890519 -0.125 4.6875 C-0.10695313 3.80449219 -0.08890625 2.92148438 -0.0703125 2.01171875 C-0.04710938 1.34785156 -0.02390625 0.68398437 0 0 Z " fill="#CB6626" transform="translate(75,134)"/>
<path d="M0 0 C0.33 0 0.66 0 1 0 C1.55048791 8.66508753 -0.11918875 16.60352122 -2 25 C-2.99 25 -3.98 25 -5 25 C-5.66 22.36 -6.32 19.72 -7 17 C-6.34 17 -5.68 17 -5 17 C-4.67 17.66 -4.34 18.32 -4 19 C-2.14845433 14.93126728 -1.45353704 11.10917594 -0.875 6.6875 C-0.62363281 4.80611328 -0.62363281 4.80611328 -0.3671875 2.88671875 C-0.24601563 1.93410156 -0.12484375 0.98148437 0 0 Z " fill="#C96D2F" transform="translate(201,125)"/>
<path d="M0 0 C2.74277578 3.19990508 4.6302836 6.00499382 6 10 C0.64951939 9.62671065 -1.50912907 8.0042343 -5 4 C-4.0409375 3.8453125 -4.0409375 3.8453125 -3.0625 3.6875 C-2.381875 3.460625 -1.70125 3.23375 -1 3 C-0.67 2.01 -0.34 1.02 0 0 Z " fill="#C96523" transform="translate(85,119)"/>
<path d="M0 0 C2.97 0 5.94 0 9 0 C8.34 0.66 7.68 1.32 7 2 C4.375 1.625 4.375 1.625 2 1 C2 3.31 2 5.62 2 8 C2.721875 8.12375 3.44375 8.2475 4.1875 8.375 C6.95721894 8.9904931 9.3970354 9.88444374 12 11 C12 11.66 12 12.32 12 13 C10.18641846 12.52494322 8.37415821 12.04483958 6.5625 11.5625 C5.55316406 11.29566406 4.54382813 11.02882813 3.50390625 10.75390625 C1 10 1 10 0 9 C-0.14193337 5.99668982 -0.04236378 3.00782866 0 0 Z " fill="#C16932" transform="translate(131,69)"/>
<path d="M0 0 C0.99 0 1.98 0 3 0 C3 0.66 3 1.32 3 2 C4.0725 2.0825 5.145 2.165 6.25 2.25 C10.2738451 3.05476902 11.48169253 3.87729874 14 7 C12.37433394 6.52309796 10.74948689 6.04340334 9.125 5.5625 C8.22007813 5.29566406 7.31515625 5.02882813 6.3828125 4.75390625 C4 4 4 4 2 3 C2.33 5.31 2.66 7.62 3 10 C2.34 9.67 1.68 9.34 1 9 C0.5859375 6.93359375 0.5859375 6.93359375 0.375 4.4375 C0.30023438 3.61121094 0.22546875 2.78492187 0.1484375 1.93359375 C0.09945312 1.29550781 0.05046875 0.65742187 0 0 Z " fill="#D06724" transform="translate(80,88)"/>
<path d="M0 0 C0.66 0 1.32 0 2 0 C2.55518152 5.18169422 2.39212832 8.07454715 -0.6875 12.375 C-3.13814789 15.34371834 -5.15119568 17.09439898 -9 18 C-9.33 16.68 -9.66 15.36 -10 14 C-7.525 14.495 -7.525 14.495 -5 15 C-4.731875 14.443125 -4.46375 13.88625 -4.1875 13.3125 C-3 11 -3 11 -1.375 8.625 C0.24504005 5.53219627 0.24020057 3.44287486 0 0 Z " fill="#BC642C" transform="translate(150,176)"/>
<path d="M0 0 C0.640625 1.82421875 0.640625 1.82421875 1 4 C-0.18113186 5.47641482 -1.3735999 6.94711716 -2.65234375 8.33984375 C-4.79432913 10.9785214 -5.79826557 13.83754096 -7 17 C-7.66 17 -8.32 17 -9 17 C-7.68925635 12.53817564 -5.92933989 9.00381243 -3.375 5.125 C-2.74335937 4.15820312 -2.11171875 3.19140625 -1.4609375 2.1953125 C-0.73777344 1.10863281 -0.73777344 1.10863281 0 0 Z " fill="#D36C29" transform="translate(70,84)"/>
<path d="M0 0 C0.66 0 1.32 0 2 0 C-0.37233107 6.32621618 -2.77297007 12.51968863 -8 17 C-7.30150228 13.0254496 -5.37107231 9.73425902 -3.4375 6.25 C-3.10814453 5.64800781 -2.77878906 5.04601562 -2.43945312 4.42578125 C-1.6303535 2.94829497 -0.81572338 1.47383964 0 0 Z " fill="#BB6227" transform="translate(192,139)"/>
<path d="M0 0 C0.886875 0.309375 1.77375 0.61875 2.6875 0.9375 C8.80055629 2.94105567 8.80055629 2.94105567 15 2 C13.3125 4.0625 13.3125 4.0625 11 6 C6.53920998 6 3.48702152 3.59499276 0 1 C0 0.67 0 0.34 0 0 Z " fill="#C16226" transform="translate(119,193)"/>
<path d="M0 0 C0.66 0.33 1.32 0.66 2 1 C-6.07744875 8.85193622 -6.07744875 8.85193622 -12 9 C-11.34 7.35 -10.68 5.7 -10 4 C-9.67 4.99 -9.34 5.98 -9 7 C-7.68677212 6.02180976 -6.37443848 5.0424189 -5.0625 4.0625 C-4.33160156 3.51722656 -3.60070312 2.97195312 -2.84765625 2.41015625 C-1.0865547 1.13092062 -1.0865547 1.13092062 0 0 Z " fill="#C26B32" transform="translate(177,120)"/>
<path d="M0 0 C0.825 0.309375 1.65 0.61875 2.5 0.9375 C6.39126155 2.11877583 9.96166953 2.58224168 14 3 C14 3.66 14 4.32 14 5 C3.44191344 4.22095672 3.44191344 4.22095672 -1 2 C-0.67 1.34 -0.34 0.68 0 0 Z " fill="#A5511D" transform="translate(140,164)"/>
<path d="M0 0 C2 1 4 2 6 3 C6.33 2.01 6.66 1.02 7 0 C7.99 2.31 8.98 4.62 10 7 C7.29068581 6.84518205 5.53415961 6.51827919 3.5546875 4.59765625 C2.32320358 3.10228292 1.1570163 1.5537076 0 0 Z " fill="#C16830" transform="translate(77,161)"/>
<path d="M0 0 C2.875 0.25 2.875 0.25 6 1 C7.375 3.0625 7.375 3.0625 8 5 C6.02 4.01 4.04 3.02 2 2 C2 3.65 2 5.3 2 7 C1.01 7 0.02 7 -1 7 C-0.67 4.69 -0.34 2.38 0 0 Z " fill="#C66C30" transform="translate(96,106)"/>
<path d="M0 0 C0.66 0 1.32 0 2 0 C1.39147692 3.54971796 0.61653196 6.76693609 -1 10 C-1.99 10.33 -2.98 10.66 -4 11 C-3.505 9.6078125 -3.505 9.6078125 -3 8.1875 C-1.85032996 5.07970709 -1.85032996 5.07970709 -2 2 C-1.34 2 -0.68 2 0 2 C0 1.34 0 0.68 0 0 Z " fill="#C86626" transform="translate(172,113)"/>
<path d="M0 0 C0.99 0 1.98 0 3 0 C3.10884119 1.41493551 3.18597617 2.83232943 3.25 4.25 C3.29640625 5.03890625 3.3428125 5.8278125 3.390625 6.640625 C3 9 3 9 -1 13 C-0.01 9.37 0.98 5.74 2 2 C1.34 2 0.68 2 0 2 C0 1.34 0 0.68 0 0 Z " fill="#C66729" transform="translate(172,89)"/>
<path d="M0 0 C0.33 1.32 0.66 2.64 1 4 C0.484375 3.835 -0.03125 3.67 -0.5625 3.5 C-3.73363876 2.84951 -6.77218334 2.9379266 -10 3 C-10 2.34 -10 1.68 -10 1 C-6.59437148 0.22157062 -3.49234244 -0.09978121 0 0 Z " fill="#C06225" transform="translate(124,83)"/>
<path d="M0 0 C-1.57725347 0.70133599 -3.16211333 1.385583 -4.75 2.0625 C-5.63171875 2.44535156 -6.5134375 2.82820313 -7.421875 3.22265625 C-10.15256309 4.04600008 -11.36901347 3.9773992 -14 3 C-9.491643 -0.00557133 -5.27839413 -1.63572214 0 0 Z " fill="#BE682C" transform="translate(172,92)"/>
<path d="M0 0 C0.66 0.33 1.32 0.66 2 1 C0.4375 3.4375 0.4375 3.4375 -2 6 C-5.75 6.8125 -5.75 6.8125 -9 7 C-6.03716687 4.61327331 -3.05729491 2.2646629 0 0 Z " fill="#D06927" transform="translate(174,57)"/>
<path d="M0 0 C0.99 0 1.98 0 3 0 C2 3 2 3 1 5 C-3.875 3.25 -3.875 3.25 -5 1 C-2.525 1.495 -2.525 1.495 0 2 C0 1.34 0 0.68 0 0 Z " fill="#B9612B" transform="translate(114,189)"/>
<path d="M0 0 C-2.97 1.65 -5.94 3.3 -9 5 C-9.33 4.01 -9.66 3.02 -10 2 C-3.375 -1.125 -3.375 -1.125 0 0 Z " fill="#CE6726" transform="translate(169,119)"/>
<path d="M0 0 C3.0916909 2.52956528 3.90931332 5.22454612 5 9 C4.01 9.495 4.01 9.495 3 10 C2.49596232 8.70990357 1.99690074 7.41786211 1.5 6.125 C1.2215625 5.40570313 0.943125 4.68640625 0.65625 3.9453125 C0 2 0 2 0 0 Z " fill="#AE5B26" transform="translate(192,95)"/>
<path d="M0 0 C1.32 0 2.64 0 4 0 C4.33 2.31 4.66 4.62 5 7 C2.47411298 4.63707344 1.11179163 3.33537489 0 0 Z " fill="#CA6828" transform="translate(61,139)"/>
<path d="M0 0 C0.625 1.8125 0.625 1.8125 1 4 C0.01 5.485 0.01 5.485 -1 7 C-1.66 7 -2.32 7 -3 7 C-2.625 4.0625 -2.625 4.0625 -2 1 C-1.34 0.67 -0.68 0.34 0 0 Z " fill="#D36520" transform="translate(132,85)"/>
</svg>
